REM DIRINDEX 1\4,1\2\5,1\2\6,1\3\7,1\3\8
REM DIRNAME folder01,folder02,folder03,folder04,folder05,folder06,folder07,folder08
TITLE ""
FILE "014_Day07_Check3_Sentences.mp3" MP3
  TRACK 01 AUDIO
    TITLE "0:"
    INDEX 01 00:00:00
  TRACK 02 AUDIO
    TITLE "4:cjc124_0430"
    INDEX 01 00:00:25
  TRACK 03 AUDIO
    TITLE "0:"
    INDEX 01 00:01:54
  TRACK 04 AUDIO
    TITLE "7:cjc124_0431"
    INDEX 01 00:02:26
  TRACK 05 AUDIO
    TITLE "0:"
    INDEX 01 00:04:36
  TRACK 06 AUDIO
    TITLE "8:cjc124_0432"
    INDEX 01 00:04:56
  TRACK 07 AUDIO
    TITLE "0:"
    INDEX 01 00:06:55
  TRACK 08 AUDIO
    TITLE "7:cjc124_0433"
    INDEX 01 00:07:17
  TRACK 09 AUDIO
    TITLE "0:"
    INDEX 01 00:09:71
  TRACK 10 AUDIO
    TITLE "8:cjc124_0434"
    INDEX 01 00:10:12
  TRACK 11 AUDIO
    TITLE "0:"
    INDEX 01 00:12:73
  TRACK 12 AUDIO
    TITLE "7:cjc124_0435"
    INDEX 01 00:13:35
  TRACK 13 AUDIO
    TITLE "0:"
    INDEX 01 00:15:58
  TRACK 14 AUDIO
    TITLE "8:cjc124_0436"
    INDEX 01 00:16:00
  TRACK 15 AUDIO
    TITLE "0:"
    INDEX 01 00:18:42
  TRACK 16 AUDIO
    TITLE "7:cjc124_0437"
    INDEX 01 00:19:03
  TRACK 17 AUDIO
    TITLE "0:"
    INDEX 01 00:21:66
  TRACK 18 AUDIO
    TITLE "8:cjc124_0438"
    INDEX 01 00:22:07
  TRACK 19 AUDIO
    TITLE "0:"
    INDEX 01 00:25:62
  TRACK 20 AUDIO
    TITLE "7:cjc124_0439"
    INDEX 01 00:26:24
  TRACK 21 AUDIO
    TITLE "0:"
    INDEX 01 00:29:29
  TRACK 22 AUDIO
    TITLE "8:cjc124_0440"
    INDEX 01 00:29:44
  TRACK 23 AUDIO
    TITLE "0:"
    INDEX 01 00:32:21
  TRACK 24 AUDIO
    TITLE "7:cjc124_0441"
    INDEX 01 00:32:56
  TRACK 25 AUDIO
    TITLE "0:"
    INDEX 01 00:35:04
  TRACK 26 AUDIO
    TITLE "8:cjc124_0442"
    INDEX 01 00:35:31
  TRACK 27 AUDIO
    TITLE "0:"
    INDEX 01 00:37:67
  TRACK 28 AUDIO
    TITLE "7:cjc124_0443"
    INDEX 01 00:38:33
  TRACK 29 AUDIO
    TITLE "0:"
    INDEX 01 00:40:56
  TRACK 30 AUDIO
    TITLE "8:cjc124_0444"
    INDEX 01 00:40:72
  TRACK 31 AUDIO
    TITLE "0:"
    INDEX 01 00:43:19
  TRACK 32 AUDIO
    TITLE "7:cjc124_0445"
    INDEX 01 00:43:56
  TRACK 33 AUDIO
    TITLE "0:"
    INDEX 01 00:46:47
  TRACK 34 AUDIO
    TITLE "8:cjc124_0446"
    INDEX 01 00:46:70
  TRACK 35 AUDIO
    TITLE "0:"
    INDEX 01 00:50:07
  TRACK 36 AUDIO
    TITLE "7:cjc124_0447"
    INDEX 01 00:50:42
  TRACK 37 AUDIO
    TITLE "0:"
    INDEX 01 00:52:53
  TRACK 38 AUDIO
    TITLE "8:cjc124_0448"
    INDEX 01 00:52:69
  TRACK 39 AUDIO
    TITLE "0:"
    INDEX 01 00:54:66
  TRACK 40 AUDIO
    TITLE "7:cjc124_0449"
    INDEX 01 00:55:30
  TRACK 41 AUDIO
    TITLE "0:"
    INDEX 01 00:57:27
  TRACK 42 AUDIO
    TITLE "8:cjc124_0450"
    INDEX 01 00:57:43
  TRACK 43 AUDIO
    TITLE "0:"
    INDEX 01 00:59:45
  TRACK 44 AUDIO
    TITLE "7:cjc124_0451"
    INDEX 01 01:00:08
  TRACK 45 AUDIO
    TITLE "0:"
    INDEX 01 01:02:46
  TRACK 46 AUDIO
    TITLE "8:cjc124_0452"
    INDEX 01 01:02:65
  TRACK 47 AUDIO
    TITLE "0:"
    INDEX 01 01:05:52
  TRACK 48 AUDIO
    TITLE "7:cjc124_0453"
    INDEX 01 01:06:20
  TRACK 49 AUDIO
    TITLE "0:"
    INDEX 01 01:08:46
  TRACK 50 AUDIO
    TITLE "8:cjc124_0454"
    INDEX 01 01:08:62
  TRACK 51 AUDIO
    TITLE "0:"
    INDEX 01 01:10:73
  TRACK 52 AUDIO
    TITLE "7:cjc124_0455"
    INDEX 01 01:11:35
  TRACK 53 AUDIO
    TITLE "0:"
    INDEX 01 01:13:22
  TRACK 54 AUDIO
    TITLE "8:cjc124_0456"
    INDEX 01 01:13:40
  TRACK 55 AUDIO
    TITLE "0:"
    INDEX 01 01:15:42
  TRACK 56 AUDIO
    TITLE "7:cjc124_0457"
    INDEX 01 01:16:07
  TRACK 57 AUDIO
    TITLE "0:"
    INDEX 01 01:18:09
  TRACK 58 AUDIO
    TITLE "8:cjc124_0458"
    INDEX 01 01:18:27
  TRACK 59 AUDIO
    TITLE "0:"
    INDEX 01 01:21:06
  TRACK 60 AUDIO
    TITLE "7:cjc124_0459"
    INDEX 01 01:21:45
  TRACK 61 AUDIO
    TITLE "0:"
    INDEX 01 01:23:42
  TRACK 62 AUDIO
    TITLE "8:cjc124_0460"
    INDEX 01 01:23:60
  TRACK 63 AUDIO
    TITLE "0:"
    INDEX 01 01:26:29
  TRACK 64 AUDIO
    TITLE "7:cjc124_0461"
    INDEX 01 01:26:64
  TRACK 65 AUDIO
    TITLE "0:"
    INDEX 01 01:28:61
  TRACK 66 AUDIO
    TITLE "8:cjc124_0462"
    INDEX 01 01:29:01
  TRACK 67 AUDIO
    TITLE "0:"
    INDEX 01 01:31:18
